<svg width="717" height="718" xmlns="http://www.w3.org/2000/svg" xmlns:xlink="http://www.w3.org/1999/xlink" overflow="hidden"><defs><clipPath id="clip0"><rect x="190" y="-1" width="717" height="718"/></clipPath><clipPath id="clip1"><rect x="284" y="152" width="529" height="475"/></clipPath><clipPath id="clip2"><rect x="283" y="152" width="530" height="475"/></clipPath><clipPath id="clip3"><rect x="-6" y="-36" width="1074" height="663"/></clipPath><clipPath id="clip4"><rect x="-6" y="-36" width="1074" height="663"/></clipPath></defs><g clip-path="url(#clip0)" transform="translate(-190 1)"><path d="M190 78.7673C190 35.2653 225.265-2.28209e-14 268.767-2.28209e-14L828.233 0C871.735-2.28209e-14 907 35.2653 907 78.7673L907 637.233C907 680.735 871.735 716 828.233 716L268.767 716C225.265 716 190 680.735 190 637.233Z" fill="#22A7F0" fill-rule="evenodd"/><path d="M435.5 190C435.5 127.316 486.316 76.5001 549 76.5001 611.684 76.5001 662.5 127.316 662.5 190 662.5 252.684 611.684 303.5 549 303.5 486.316 303.5 435.5 252.684 435.5 190Z" stroke="#FFFFFF" stroke-width="14.6667" stroke-miterlimit="8" fill="none" fill-rule="evenodd"/><g clip-path="url(#clip1)"><g clip-path="url(#clip2)"><g clip-path="url(#clip3)"><g clip-path="url(#clip4)"><path d="M20.4949-26.4934 1079.23-26.4934 1079.23 146.526 828.25 146.526 726.806 330.132 726.806 621.344 406.226 621.344 406.226 328.54 305.661 146.526 20.4949 146.526Z" stroke="#FFFFFF" stroke-width="16.2535" stroke-miterlimit="8" fill="none" fill-rule="evenodd" transform="matrix(1.0007 0 -0 1 -18.7809 -1.84238)"/></g></g></g></g></g></svg>