<?xml version="1.0" encoding="UTF-8" standalone="no"?>
<svg
   inkscape:version="1.3.2 (091e20e, 2023-11-25, custom)"
   sodipodi:docname="welcome 2 en.svg"
   id="svg62"
   version="1.1"
   overflow="hidden"
   height="645.88586"
   width="2881.1868"
   xmlns:inkscape="http://www.inkscape.org/namespaces/inkscape"
   xmlns:sodipodi="http://sodipodi.sourceforge.net/DTD/sodipodi-0.dtd"
   xmlns="http://www.w3.org/2000/svg"
   xmlns:svg="http://www.w3.org/2000/svg"
   xmlns:rdf="http://www.w3.org/1999/02/22-rdf-syntax-ns#"
   xmlns:cc="http://creativecommons.org/ns#"
   xmlns:dc="http://purl.org/dc/elements/1.1/">
  <path
     d="m 274.02942,591.53048 q -12.01481,0 -18.02222,-4.29167 -5.25648,-4.29169 -5.25648,-14.30559 v -93.70165 q -9.76205,-6.43753 -36.79538,-11.44448 -27.03335,-5.00697 -51.06298,-6.43752 -8.2602,15.02088 -12.01483,36.47926 l -3.00371,14.3056 q -0.75092,5.00696 -4.50555,22.17368 -3.75464,17.1667 -8.2602,30.04174 -4.50555,12.15976 -9.0111,19.31256 -28.535202,0 -33.04077,-14.3056 8.2602,-11.44449 18.77317,-67.23629 l 24.78056,-130.8962 q 16.52038,-92.98637 30.03705,-158.79209 14.26759,-65.80574 30.03705,-110.15308 17.27131,-49.35431 33.04075,-49.35431 15.76944,0 24.02964,5.722234 0,28.61118 14.26759,138.049006 15.01853,107.29195 15.01853,146.63234 0,37.90982 8.26019,108.72251 7.50926,72.24326 7.50926,115.16003 0,24.31952 -24.78057,24.31952 z M 234.98126,437.74534 q 6.00741,0 15.01853,-2.14584 -2.25278,-31.47231 -7.50926,-77.9655 -17.27131,-161.65322 -17.27131,-198.13249 v -5.72223 q -7.50926,7.1528 -21.02592,65.09047 -12.76575,57.22236 -24.02965,123.0281 -11.26389,65.80575 -12.01482,87.26413 31.5389,8.58336 66.83243,8.58336 z m 476.08796,164.51434 q -15.01853,0 -61.57597,-147.34762 -52.56483,-172.38244 -90.86209,-316.86894 v 234.61176 q 0,30.04175 6.00743,102.28501 5.25648,78.68076 5.25648,101.56972 0,6.43751 -8.26018,11.44448 -8.26019,4.29167 -18.77317,4.29167 -15.76944,0 -15.76944,-11.44446 l 1.50186,-20.74313 q 1.50184,-22.88895 1.50184,-30.04174 0,-37.90983 -4.50555,-120.16699 -4.50555,-83.68774 -4.50555,-101.56974 v -91.5558 q 0,-22.17367 2.25277,-65.80574 3.00371,-37.90983 3.00371,-65.805734 v -4.291682 q 0,-35.763983 16.52036,-35.763983 9.76205,0 24.78058,31.472309 24.78056,51.50015 63.0778,184.54217 21.77686,77.25021 51.06299,198.84777 -0.75093,-2.86111 12.01481,49.3543 l 0.75093,3.5764 q 0,-69.38213 1.50186,-124.45867 l 1.50184,-124.45868 V 52.209564 q 3.00372,-17.881987 24.02964,-17.881987 20.27501,0 20.27501,27.895895 v 4.291682 q -4.50555,8.583356 -4.50555,20.7431 0,43.632076 -2.25278,131.611496 -2.25278,88.69468 -2.25278,133.04203 v 218.16031 q 0,11.44448 -6.75833,21.45839 -6.00742,10.7292 -15.01852,10.7292 z m 166.70616,-6.43752 q -14.26761,0 -24.78058,-3.5764 -12.76574,-3.57639 -12.76574,-20.02783 V 156.64041 q 0,-12.15977 -4.50555,-36.47929 -5.2565,-22.173665 -5.2565,-36.479255 v -2.145836 q 12.76574,-20.027833 18.77316,-25.750067 10.51296,0 27.78427,-2.861122 15.76946,-2.861121 27.78427,-2.861121 12.01482,0 23.27872,7.152795 11.26389,6.437528 11.26389,15.73615 0,21.458403 -34.54261,21.458403 h -10.51297 q -4.50555,-0.715285 -10.51296,-0.715285 -6.75834,0 -8.2602,0.715285 0,24.319513 3.00372,58.652933 l 1.50184,20.02784 1.50186,39.34039 q 0,13.59031 -2.25277,41.4862 l -1.50185,40.05568 10.51294,-2.14585 q 15.01853,-4.29166 24.78058,-4.29166 8.2602,0 15.01853,6.43751 6.75834,5.72223 6.75834,13.59032 0,8.58335 -6.00743,15.73616 -5.25647,6.43751 -13.51666,6.43751 l -9.01111,-0.71528 h -9.76204 q -11.2639,0 -15.76945,5.00695 v 221.02145 l 42.05185,-2.14585 q 42.80281,0 42.80281,18.59728 v 2.86112 q -4.50556,8.58335 -16.52039,14.3056 -12.01481,5.00695 -23.27871,6.43752 l -24.78055,0.71527 z m 241.04712,5.72224 q -27.7843,0 -27.7843,-54.36126 0,-34.33343 -31.5388,-245.34095 -30.788,-211.722806 -39.0482,-231.035354 9.7621,-17.16672 26.2825,-17.16672 17.2713,0 32.2898,74.389104 14.2676,78.68075 24.0296,180.25048 l 5.2565,57.93766 q 4.5055,48.63903 5.2565,49.35431 l 7.5092,-60.0835 4.5055,-37.19455 q 9.7621,-81.54188 12.7658,-115.16003 3.7547,-44.34734 3.7547,-60.79878 v -13.59032 q 0,-7.86806 6.0073,-15.02088 6.0075,-7.15279 13.5168,-7.15279 27.0333,0 27.0333,21.4584 v 10.72919 q 0,40.77095 8.2602,87.97941 9.0111,46.49318 25.5315,111.58363 10.5131,37.90983 21.0259,92.27109 2.2528,-23.60423 14.2676,-114.44476 12.0149,-82.97244 17.2713,-140.91011 6.0075,-58.65293 6.0075,-109.437801 0,-16.451435 5.2564,-22.888954 6.0074,-7.152795 21.777,-7.152795 9.011,0 15.7694,5.722252 7.5091,5.006949 7.5091,13.590305 0,7.86808 -7.5091,16.451435 0,51.500138 -8.2603,120.882268 -8.2601,68.66686 -20.275,130.89621 -12.0147,60.79877 -20.275,130.89619 -8.2601,69.38213 -8.2601,122.31283 0,11.44448 -6.0075,17.882 -5.2565,7.15279 -16.5203,7.15279 -8.2602,0 -19.5242,-29.32647 -14.2675,-40.77095 -35.2935,-162.36849 l -13.5167,-83.68774 -6.7583,-46.49318 q -9.7619,65.09046 -15.0185,105.14612 -4.5055,39.34039 -9.0111,93.70166 -5.2565,52.2154 -5.2565,103.00027 0,7.1528 -6.7583,13.59032 -6.0074,6.43751 -14.2677,6.43751 z m 508.3771,0 q -27.7843,0 -27.7843,-54.36126 0,-34.33343 -31.5389,-245.34095 -30.7879,-211.722806 -39.0482,-231.035354 9.7622,-17.16672 26.2825,-17.16672 17.2711,0 32.2898,74.389104 14.2676,78.68075 24.0297,180.25048 l 5.2564,57.93766 q 4.5057,48.63903 5.2565,49.35431 l 7.5092,-60.0835 4.5056,-37.19455 q 9.762,-81.54188 12.7657,-115.16003 3.7547,-44.34734 3.7547,-60.79878 v -13.59032 q 0,-7.86806 6.0074,-15.02088 6.0075,-7.15279 13.5167,-7.15279 27.0334,0 27.0334,21.4584 v 10.72919 q 0,40.77095 8.26,87.97941 9.0112,46.49318 25.5316,111.58363 10.5129,37.90983 21.0259,92.27109 2.2528,-23.60423 14.2677,-114.44476 12.0148,-82.97244 17.2712,-140.91011 6.0075,-58.65293 6.0075,-109.437801 0,-16.451435 5.2563,-22.888954 6.0075,-7.152795 21.7771,-7.152795 9.0111,0 15.7694,5.722252 7.5093,5.006949 7.5093,13.590305 0,7.86808 -7.5093,16.451435 0,51.500138 -8.2602,120.882268 -8.2602,68.66686 -20.275,130.89621 -12.0148,60.79877 -20.2751,130.89619 -8.26,69.38213 -8.26,122.31283 0,11.44448 -6.0076,17.882 -5.2564,7.15279 -16.5202,7.15279 -8.2604,0 -19.5241,-29.32647 -14.2678,-40.77095 -35.2936,-162.36849 l -13.5168,-83.68774 -6.7583,-46.49318 q -9.762,65.09046 -15.0184,105.14612 -4.5056,39.34039 -9.011,93.70166 -5.2566,52.2154 -5.2566,103.00027 0,7.1528 -6.7584,13.59032 -6.0074,6.43751 -14.2676,6.43751 z m 394.236,10.0139 q -20.2751,0 -36.7954,-12.87502 -16.5205,-12.87504 -28.5353,-35.0487 -21.7767,-38.62513 -32.2898,-105.86141 -7.5092,-46.49319 -11.2639,-107.29196 l -0.7508,-37.90982 v -38.62511 q -0.7509,-18.59728 -0.7509,-45.06262 0,-42.91679 3.7545,-75.81966 3.0037,-34.33342 15.0186,-67.951574 12.0149,-29.326464 34.5426,-41.486226 13.5167,-5.722234 27.0333,-5.722234 39.7991,0 63.0778,30.041749 25.5315,33.618145 33.7918,75.104385 12.0149,50.06957 13.5166,95.84747 3.0037,50.78487 3.0037,95.84749 V 375.516 q 0,12.15975 -3.7546,45.77791 -3.0036,26.46535 -3.0036,45.06261 v 2.86113 q -4.5057,20.02783 -4.5057,47.20847 0,20.02783 -9.0112,41.4862 -9.011,21.45841 -25.5313,36.47929 -16.5205,17.16669 -37.5464,17.16669 z m 1.5018,-39.34037 q 15.0185,0 25.5316,-26.46535 9.011,-23.60423 12.7658,-57.22239 4.5055,-34.33341 7.5091,-77.25021 1.5018,-18.59726 1.5018,-47.92372 l -0.7508,-65.80574 q -1.5018,-38.62511 -9.0112,-96.56277 -6.0074,-49.35432 -22.5278,-87.26414 -7.5092,-17.881983 -18.7731,-27.895899 -11.2639,-10.013925 -24.0297,-10.013925 -18.773,0 -27.7842,27.895924 -11.264,29.32646 -15.0186,64.37517 -4.5055,37.90982 -5.2564,72.24325 l -0.751,23.60423 q -0.7508,10.01392 -0.7508,27.18064 v 2.86111 q 0,47.92374 10.5128,118.02116 12.0148,95.1322 35.2936,135.18787 15.0185,25.03479 31.5389,25.03479 z m 305.6267,26.46535 q -14.2678,0 -27.7845,-19.31255 v -2.14584 q -2.2528,-37.90983 -13.5165,-84.40301 -11.2641,-46.49318 -33.0409,-112.29893 -16.5204,-49.3543 -27.7843,-88.69469 v 281.82022 q 0,11.44448 -4.5055,17.16672 -3.7546,5.00696 -15.7694,5.00696 -9.0112,0 -14.2676,-5.00696 -5.2565,-5.72224 -5.2565,-14.30559 v -5.72224 l 1.5019,-210.29224 q 1.5017,-92.98636 1.5017,-209.57697 V 62.938757 q 0,-8.583356 3.7547,-11.444486 3.7546,-3.576389 15.7695,-3.576389 18.7731,0 34.5425,7.152795 15.7694,6.437519 27.0334,18.597272 23.2788,25.0348 30.037,60.083501 3.0037,14.3056 3.0037,32.90286 0,10.7292 -2.2527,23.60425 -1.5018,12.87503 -2.2528,16.45141 -1.5019,7.1528 -6.7583,21.45841 -5.2564,14.30559 -6.7583,18.59726 l -9.0112,20.02784 -7.5093,18.59727 q 0.751,25.75007 9.0113,65.09046 9.0111,39.34039 19.5239,72.95854 7.5093,23.60423 27.0335,78.68077 l 21.7767,62.9446 v 1.43057 q 0,12.15976 -2.2527,20.74312 -2.2528,11.44447 -15.7693,11.44447 z m -103.628,-339.04259 q 10.5129,-10.01393 25.5316,-27.89592 l 11.2638,-61.51405 q 0.751,-3.57641 0.751,-10.01392 0,-20.74311 -8.2603,-47.92375 -4.5055,-12.875025 -12.0148,-21.45839 -6.7584,-9.298631 -14.2676,-10.013916 l -1.5019,71.527976 q -2.2528,47.92374 -2.2528,74.3891 0,25.03479 0.751,32.90287 z m 216.2664,339.75787 q -9.762,0 -18.0221,-7.1528 -7.5094,-6.43752 -7.5094,-15.73615 0,-6.43752 3.0036,-15.73616 2.2529,-10.0139 2.2529,-15.02087 0,-63.6599 -7.5093,-244.62568 -7.5091,-154.50041 -7.5091,-243.910386 0,-6.437519 5.2563,-10.013917 5.2566,-4.291682 12.7659,-4.291682 9.0111,0 15.7694,6.437519 6.7583,5.722243 6.7583,14.305608 0,42.916778 4.5055,128.750338 3.7547,95.13222 3.7547,128.75037 l 0.751,8.58335 v 8.58335 5.00697 3.57638 q 2.2526,62.22934 2.2526,185.97275 v 18.59726 h 57.8215 q 15.7694,10.7292 15.7694,21.45841 0,7.86808 -6.0075,14.30559 -5.2565,5.72223 -12.7656,5.72223 -2.2529,0 -8.2602,-1.43056 l -3.0037,-0.71528 q -4.5057,0.71528 -14.2677,0.71528 h -12.7657 q -5.2565,-0.71528 -12.0148,-0.71528 -7.5093,8.58336 -21.026,8.58336 z m 191.4864,-6.43752 q -15.0187,0 -26.2825,-6.43752 -10.5129,-6.43751 -10.5129,-17.882 16.5203,-15.73615 16.5203,-83.68772 0,-40.77095 -6.7583,-118.73644 -7.5093,-74.3891 -7.5093,-117.30587 l 1.5018,-39.34039 q 0.751,-17.16672 0.751,-39.34038 0,-20.02783 -7.5093,-50.78487 -9.0111,-32.187596 -9.0111,-45.062616 0,-25.0348 57.8214,-25.0348 h 11.2638 q 40.5502,0 70.5871,23.60423 24.0296,20.027842 40.55,57.937666 11.264,25.75008 19.5241,71.52797 4.5055,40.05567 4.5055,62.94463 v 22.88895 33.61814 q -1.5018,2.86111 -1.5018,5.72224 0,5.72223 0.751,8.58335 0.7508,2.86113 0.7508,7.15281 0,22.88894 -7.5092,55.07653 -6.7584,31.47232 -20.2751,64.37517 -33.7916,78.68079 -75.8435,111.58365 -24.7805,18.59727 -51.8138,18.59727 z m 15.7694,-41.48623 q 27.7842,-16.45143 48.8102,-47.20846 21.026,-31.47231 32.2899,-69.38214 20.275,-70.09741 20.275,-141.62539 0,-38.62509 -7.5093,-84.403 -8.2601,-44.34734 -35.2935,-80.11133 -12.7658,-17.16672 -32.2899,-26.46534 -19.524,-10.01392 -44.3047,-10.01392 v 0.715276 q 0,64.375184 9.0112,194.556094 9.0111,129.46564 9.0111,195.98664 z"
     id="text1"
     style="font-weight:bold;font-size:639.902px;line-height:1.25;font-family:'Amatic SC';-inkscape-font-specification:'Amatic SC, Bold';stroke-width:18.3221"
     aria-label="A NEW WORLD" />
  <metadata
     id="metadata66">
    <rdf:RDF>
      <cc:Work
         rdf:about="">
        <dc:format>image/svg+xml</dc:format>
        <dc:type
           rdf:resource="http://purl.org/dc/dcmitype/StillImage" />
      </cc:Work>
    </rdf:RDF>
  </metadata>
  <sodipodi:namedview
     inkscape:current-layer="svg62"
     inkscape:window-maximized="1"
     inkscape:window-y="-9"
     inkscape:window-x="-9"
     inkscape:cy="418.36735"
     inkscape:cx="1428.8854"
     inkscape:zoom="0.23304878"
     fit-margin-right="0"
     fit-margin-left="0"
     fit-margin-top="0"
     fit-margin-bottom="130"
     showgrid="false"
     id="namedview64"
     inkscape:window-height="1051"
     inkscape:window-width="1920"
     inkscape:pageshadow="2"
     inkscape:pageopacity="0"
     guidetolerance="10"
     gridtolerance="10"
     objecttolerance="10"
     borderopacity="1"
     bordercolor="#666666"
     pagecolor="#ffffff"
     inkscape:showpageshadow="2"
     inkscape:pagecheckerboard="0"
     inkscape:deskcolor="#d1d1d1" />
  <defs
     id="defs42">
    <clipPath
       id="clip0">
      <rect
         id="rect39"
         height="52"
         width="161"
         y="258"
         x="-103" />
    </clipPath>
  </defs>
</svg>
