<?xml version="1.0" encoding="UTF-8" standalone="no"?>
<svg
   inkscape:version="1.3.2 (091e20e, 2023-11-25, custom)"
   sodipodi:docname="welcome 1 en.svg"
   id="svg74"
   version="1.1"
   overflow="hidden"
   height="782.22992"
   width="2623.6702"
   xmlns:inkscape="http://www.inkscape.org/namespaces/inkscape"
   xmlns:sodipodi="http://sodipodi.sourceforge.net/DTD/sodipodi-0.dtd"
   xmlns="http://www.w3.org/2000/svg"
   xmlns:svg="http://www.w3.org/2000/svg"
   xmlns:rdf="http://www.w3.org/1999/02/22-rdf-syntax-ns#"
   xmlns:cc="http://creativecommons.org/ns#"
   xmlns:dc="http://purl.org/dc/elements/1.1/">
  <metadata
     id="metadata78">
    <rdf:RDF>
      <cc:Work
         rdf:about="">
        <dc:format>image/svg+xml</dc:format>
        <dc:type
           rdf:resource="http://purl.org/dc/dcmitype/StillImage" />
        <dc:title />
      </cc:Work>
    </rdf:RDF>
  </metadata>
  <sodipodi:namedview
     inkscape:current-layer="svg74"
     inkscape:window-maximized="1"
     inkscape:window-y="-9"
     inkscape:window-x="-9"
     inkscape:cy="651.41776"
     inkscape:cx="922.48702"
     inkscape:zoom="0.35230848"
     fit-margin-bottom="130"
     fit-margin-top="130"
     fit-margin-right="0"
     fit-margin-left="0"
     lock-margins="false"
     showgrid="false"
     id="namedview76"
     inkscape:window-height="1051"
     inkscape:window-width="1920"
     inkscape:pageshadow="2"
     inkscape:pageopacity="0"
     guidetolerance="10"
     gridtolerance="10"
     objecttolerance="10"
     borderopacity="1"
     bordercolor="#666666"
     pagecolor="#ffffff"
     inkscape:showpageshadow="2"
     inkscape:pagecheckerboard="0"
     inkscape:deskcolor="#d1d1d1" />
  <defs
     id="defs48">
    <rect
       x="178.82056"
       y="244.10426"
       width="2001.0872"
       height="513.75431"
       id="rect1" />
    <clipPath
       id="clip0">
      <rect
         id="rect45"
         height="44"
         width="213"
         y="148"
         x="613" />
    </clipPath>
  </defs>
  <path
     style="font-weight:bold;font-size:40px;line-height:1.25;font-family:'Amatic SC';-inkscape-font-specification:'Amatic SC, Bold';white-space:pre"
     d="m 185.22031,281.89191 q -1.48,0 -1.48,-3.04 0,-1.92 -1.68,-13.72 -1.64,-11.84 -2.08,-12.92 0.52,-0.96 1.4,-0.96 0.92,0 1.72,4.16 0.76,4.4 1.28,10.08 l 0.28,3.24 q 0.24,2.72 0.28,2.76 l 0.4,-3.36 0.24,-2.08 q 0.52,-4.56 0.68,-6.44 0.2,-2.48 0.2,-3.4 v -0.76 q 0,-0.44 0.32,-0.84 0.32,-0.4 0.72,-0.4 1.44,0 1.44,1.2 v 0.6 q 0,2.28 0.44,4.92 0.48,2.6 1.36,6.24 0.56,2.12 1.12,5.16 0.12,-1.32 0.76,-6.4 0.64,-4.64 0.92,-7.88 0.32,-3.28 0.32,-6.12 0,-0.92 0.28,-1.28 0.32,-0.4 1.16,-0.4 0.48,0 0.84,0.32 0.4,0.28 0.4,0.76 0,0.44 -0.4,0.92 0,2.88 -0.44,6.76 -0.44,3.84 -1.08,7.32 -0.64,3.4 -1.08,7.32 -0.44,3.88 -0.44,6.84 0,0.64 -0.32,1 -0.28,0.4 -0.88,0.4 -0.44,0 -1.04,-1.64 -0.76,-2.28 -1.88,-9.08 l -0.72,-4.68 -0.36,-2.6 q -0.52,3.64 -0.8,5.88 -0.24,2.2 -0.48,5.24 -0.28,2.92 -0.28,5.76 0,0.4 -0.36,0.76 -0.32,0.36 -0.76,0.36 z m 18.03998,-0.32 q -0.76,0 -1.32,-0.2 -0.68,-0.2 -0.68,-1.12 v -23.24 q 0,-0.68 -0.24,-2.04 -0.28,-1.24 -0.28,-2.04 v -0.12 q 0.68,-1.12 1,-1.44 0.56,0 1.48,-0.16 0.84,-0.16 1.48,-0.16 0.64,0 1.24,0.4 0.6,0.36 0.6,0.88 0,1.2 -1.84,1.2 h -0.56 q -0.24,-0.04 -0.56,-0.04 -0.36,0 -0.44,0.04 0,1.36 0.16,3.28 l 0.08,1.12 0.08,2.2 q 0,0.76 -0.12,2.32 l -0.08,2.24 0.56,-0.12 q 0.8,-0.24 1.32,-0.24 0.44,0 0.8,0.36 0.36,0.32 0.36,0.76 0,0.48 -0.32,0.88 -0.28,0.36 -0.72,0.36 l -0.48,-0.04 h -0.52 q -0.6,0 -0.84,0.28 v 12.36 l 2.24,-0.12 q 2.28,0 2.28,1.04 v 0.16 q -0.24,0.48 -0.88,0.8 -0.64,0.28 -1.24,0.36 l -1.32,0.04 z m 10.68,0.2 q -0.52,0 -0.96,-0.4 -0.4,-0.36 -0.4,-0.88 0,-0.36 0.16,-0.88 0.12,-0.56 0.12,-0.84 0,-3.56 -0.4,-13.68 -0.4,-8.64 -0.4,-13.64 0,-0.36 0.28,-0.56 0.28,-0.24 0.68,-0.24 0.48,0 0.84,0.36 0.36,0.32 0.36,0.8 0,2.4 0.24,7.2 0.2,5.32 0.2,7.2 l 0.04,0.48 v 0.48 0.28 0.2 q 0.12,3.48 0.12,10.4 v 1.04 h 3.08 q 0.84,0.6 0.84,1.2 0,0.44 -0.32,0.8 -0.28,0.32 -0.68,0.32 -0.12,0 -0.44,-0.08 l -0.16,-0.04 q -0.24,0.04 -0.76,0.04 h -0.68 q -0.28,-0.04 -0.64,-0.04 -0.4,0.48 -1.12,0.48 z m 13.68,0.2 q -1.12,0 -2.08,-0.52 -0.92,-0.52 -1.6,-1.4 -0.6,-0.84 -1.08,-2.12 -0.48,-1.32 -0.72,-2.72 -0.48,-2.36 -0.64,-6.2 -0.04,-0.92 -0.04,-3.16 v -2.52 q 0.04,-1.08 0.04,-2.24 0,-2.36 0.28,-3.72 -0.12,-0.6 -0.12,-1.24 0,-2.4 1.8,-3.88 1.8,-1.48 4.56,-1.48 1.04,0 1.92,0.56 0.88,0.56 0.88,1.4 0,0.4 -0.32,0.64 -0.32,0.24 -0.8,0.24 -0.4,0 -0.88,-0.12 -0.44,-0.12 -0.56,-0.36 h -0.52 v -0.08 q -1.48,0 -2.48,0.64 -0.72,0.52 -1.12,1.72 -0.16,0.44 -0.24,1.12 -0.08,0.68 -0.08,1.24 -0.04,0.32 -0.04,1.28 l 0.08,1.4 0.04,1.36 q 0,0.6 -0.16,1.4 -0.2,1 -0.2,1.4 v 0.96 q 0,1.56 0.12,4.28 0.04,2.28 0.52,4.56 0.36,2.12 1.36,3.6 0.96,1.52 2.6,1.52 0.68,0 1.68,-0.72 1.08,-0.72 1.52,-0.72 0.56,0 1.16,0.6 0,1.48 -1.12,2.28 -1.04,0.72 -2.48,0.92 -0.8,0.08 -1.28,0.08 z m 13.19999,0.48 q -1.08,0 -1.96,-0.72 -0.88,-0.72 -1.52,-1.96 -1.16,-2.16 -1.72,-5.92 -0.4,-2.6 -0.6,-6 l -0.04,-2.12 v -2.16 q -0.04,-1.04 -0.04,-2.52 0,-2.4 0.2,-4.24 0.16,-1.92 0.8,-3.8 0.64,-1.64 1.84,-2.32 0.72,-0.32 1.44,-0.32 2.12,0 3.36,1.68 1.36,1.88 1.8,4.2 0.64,2.8 0.72,5.36 0.16,2.84 0.16,5.36 v 2.28 q 0,0.68 -0.2,2.56 -0.16,1.48 -0.16,2.52 v 0.16 q -0.24,1.12 -0.24,2.64 0,1.12 -0.48,2.32 -0.48,1.2 -1.36,2.04 -0.88,0.96 -2,0.96 z m 0.08,-2.2 q 0.8,0 1.36,-1.48 0.48,-1.32 0.68,-3.2 0.24,-1.92 0.4,-4.32 0.08,-1.04 0.08,-2.68 l -0.04,-3.68 q -0.08,-2.16 -0.48,-5.4 -0.32,-2.76 -1.2,-4.88 -0.4,-1 -1,-1.56 -0.6,-0.56 -1.28,-0.56 -1,0 -1.48,1.56 -0.6,1.64 -0.8,3.6 -0.24,2.12 -0.28,4.04 l -0.04,1.32 q -0.04,0.56 -0.04,1.52 v 0.16 q 0,2.68 0.56,6.6 0.64,5.32 1.88,7.56 0.8,1.4 1.68,1.4 z m 20.39998,2.12 q -0.4,0 -0.64,-0.4 -0.24,-0.4 -0.24,-1.16 l -0.04,-5.92 q -0.04,-0.76 -0.04,-2.52 -0.08,-3.72 -0.08,-8.4 v -2.04 q -0.36,1.92 -1.24,5.4 -0.88,3.6 -1.24,5.92 v 0.24 l -0.12,0.76 q -0.08,0.88 -0.4,1.8 -0.4,0.96 -1.24,0.96 -1.44,0 -1.44,-3.76 0,-2.08 -0.44,-4.44 -0.4,-2.4 -1.32,-5.88 l -1.2,-4.48 -0.08,4.8 q 0,2.16 0.2,8.24 l 0.08,2.72 0.08,5.48 q 0,0.84 -0.6,1.52 -1,0 -1.4,-0.6 -0.36,-0.64 -0.36,-1.84 l 0.08,-3.28 q 0.12,-2.16 0.12,-3.24 l -0.08,-7.72 -0.08,-7.76 q 0,-1.72 0.08,-5.16 l 1.08,-0.64 q 0.32,0.04 0.64,0.48 0.32,0.4 0.72,1.32 1,2.48 2.6,9.92 0.24,1.04 0.32,1.72 0.48,2.32 0.68,3.52 l 0.6,3.08 0.28,-1.32 0.76,-3.28 q 0.64,-2.88 1.04,-5.04 0.44,-2.16 0.84,-4.68 0.44,-3 0.56,-5 v -0.24 q 0.08,-0.52 0.48,-0.8 0.4,-0.32 0.96,-0.32 0.36,0 0.64,0.32 0.28,0.32 0.28,0.68 0,4.8 0.36,14.36 0.2,4.68 0.28,9.16 0.08,2.04 0.08,5.16 0,0.92 -0.48,1.64 -0.48,0.72 -1.08,0.72 z m 8.87997,-0.8 q -0.76,0 -1.32,-0.2 -0.68,-0.2 -0.68,-1.12 v -23.24 q 0,-0.68 -0.24,-2.04 -0.28,-1.24 -0.28,-2.04 v -0.12 q 0.68,-1.12 1,-1.44 0.56,0 1.48,-0.16 0.84,-0.16 1.48,-0.16 0.64,0 1.24,0.4 0.6,0.36 0.6,0.88 0,1.2 -1.84,1.2 h -0.56 q -0.24,-0.04 -0.56,-0.04 -0.36,0 -0.44,0.04 0,1.36 0.16,3.28 l 0.08,1.12 0.08,2.2 q 0,0.76 -0.12,2.32 l -0.08,2.24 0.56,-0.12 q 0.8,-0.24 1.32,-0.24 0.44,0 0.8,0.36 0.36,0.32 0.36,0.76 0,0.48 -0.32,0.88 -0.28,0.36 -0.72,0.36 l -0.48,-0.04 h -0.52 q -0.6,0 -0.84,0.28 v 12.36 l 2.24,-0.12 q 2.28,0 2.28,1.04 v 0.16 q -0.24,0.48 -0.88,0.8 -0.64,0.28 -1.24,0.36 l -1.32,0.04 z m 19.16002,0.04 q -0.6,0 -0.96,-0.56 -0.32,-0.6 -0.32,-1.44 0,-1.32 0.16,-3.24 l 0.08,-1.04 0.08,-2.12 q 0,-1.4 -0.28,-6.24 -0.28,-4.84 -0.28,-6.24 0,-0.12 0,-0.44 0.04,-0.36 0.04,-1.08 0.04,-0.8 0.04,-1.96 0,-2.92 -0.4,-3.72 -0.24,0 -1.04,0.12 l -1.12,0.08 q -0.52,0 -0.92,-0.28 -0.4,-0.32 -0.4,-0.8 0,-0.48 0.96,-0.84 1.4,-0.48 4.76,-0.68 1.36,-0.08 1.64,-0.08 0.48,0 0.88,0.32 0.4,0.32 0.4,0.8 0,0.48 -0.36,0.8 -0.32,0.28 -0.84,0.28 l -0.72,-0.04 q -0.32,-0.04 -0.72,-0.04 h -0.4 q 0.28,2.72 0.28,4.92 l -0.04,2.56 q -0.04,1.16 -0.04,2.6 0,1.92 0.16,4.6 0.2,3.32 0.2,4.6 0,1.52 0.16,3.6 0.16,2.12 0.16,3.6 0,1.96 -1.16,1.96 z m 12.71996,0.84 q -1.08,0 -1.96,-0.72 -0.88,-0.72 -1.52,-1.96 -1.16,-2.16 -1.72,-5.92 -0.4,-2.6 -0.6,-6 l -0.04,-2.12 v -2.16 q -0.04,-1.04 -0.04,-2.52 0,-2.4 0.2,-4.24 0.16,-1.92 0.8,-3.8 0.64,-1.64 1.84,-2.32 0.72,-0.32 1.44,-0.32 2.12,0 3.36,1.68 1.36,1.88 1.8,4.2 0.64,2.8 0.72,5.36 0.16,2.84 0.16,5.36 v 2.28 q 0,0.68 -0.2,2.56 -0.16,1.48 -0.16,2.52 v 0.16 q -0.24,1.12 -0.24,2.64 0,1.12 -0.48,2.32 -0.48,1.2 -1.36,2.04 -0.88,0.96 -2,0.96 z m 0.08,-2.2 q 0.8,0 1.36,-1.48 0.48,-1.32 0.68,-3.2 0.24,-1.92 0.4,-4.32 0.08,-1.04 0.08,-2.68 l -0.04,-3.68 q -0.08,-2.16 -0.48,-5.4 -0.32,-2.76 -1.2,-4.88 -0.4,-1 -1,-1.56 -0.6,-0.56 -1.28,-0.56 -1,0 -1.48,1.56 -0.6,1.64 -0.8,3.6 -0.24,2.12 -0.28,4.04 l -0.04,1.32 q -0.04,0.56 -0.04,1.52 v 0.16 q 0,2.68 0.56,6.6 0.64,5.32 1.88,7.56 0.8,1.4 1.68,1.4 z"
     id="text1"
     transform="matrix(20.699798,0,0,17.387947,-3720.0146,-4240.1979)"
     aria-label="WELCOME TO" />
</svg>
