<?xml version="1.0" encoding="UTF-8" standalone="no"?>
<svg
   xmlns:dc="http://purl.org/dc/elements/1.1/"
   xmlns:cc="http://creativecommons.org/ns#"
   xmlns:rdf="http://www.w3.org/1999/02/22-rdf-syntax-ns#"
   xmlns:svg="http://www.w3.org/2000/svg"
   xmlns="http://www.w3.org/2000/svg"
   xmlns:sodipodi="http://sodipodi.sourceforge.net/DTD/sodipodi-0.dtd"
   xmlns:inkscape="http://www.inkscape.org/namespaces/inkscape"
   inkscape:version="1.0 (4035a4fb49, 2020-05-01)"
   sodipodi:docname="welcome 1.svg"
   id="svg74"
   version="1.1"
   overflow="hidden"
   height="782.22992"
   width="2623.6702">
  <metadata
     id="metadata78">
    <rdf:RDF>
      <cc:Work
         rdf:about="">
        <dc:format>image/svg+xml</dc:format>
        <dc:type
           rdf:resource="http://purl.org/dc/dcmitype/StillImage" />
        <dc:title></dc:title>
      </cc:Work>
    </rdf:RDF>
  </metadata>
  <sodipodi:namedview
     inkscape:current-layer="svg74"
     inkscape:window-maximized="0"
     inkscape:window-y="0"
     inkscape:window-x="-7"
     inkscape:cy="651.2572"
     inkscape:cx="924.59516"
     inkscape:zoom="0.35230848"
     fit-margin-bottom="130"
     fit-margin-top="130"
     fit-margin-right="0"
     fit-margin-left="0"
     lock-margins="false"
     showgrid="false"
     id="namedview76"
     inkscape:window-height="1048"
     inkscape:window-width="958"
     inkscape:pageshadow="2"
     inkscape:pageopacity="0"
     guidetolerance="10"
     gridtolerance="10"
     objecttolerance="10"
     borderopacity="1"
     bordercolor="#666666"
     pagecolor="#ffffff" />
  <defs
     id="defs48">
    <clipPath
       id="clip0">
      <rect
         id="rect45"
         height="44"
         width="213"
         y="148"
         x="613" />
    </clipPath>
  </defs>
  <g
     id="g72"
     transform="matrix(12.433749,0,0,12.433749,-7634.496,-1722.7902)"
     clip-path="url(#clip0)">
    <path
       id="path50"
       fill-rule="evenodd"
       d="m 626.014,185.358 -0.058,3.836 v 0.059 c -0.2,0.685 -0.391,1.15 -0.57,1.394 -0.181,0.243 -0.488,0.366 -0.918,0.366 -0.753,0 -2,-0.039 -3.739,-0.118 l -3.333,-0.06 c -1.585,0 -2.358,-0.45 -2.319,-1.344 -0.039,-1.417 -0.106,-4.069 -0.203,-7.959 -0.097,-3.889 -0.169,-6.036 -0.213,-6.447 -0.432,-8.147 -0.647,-14.608 -0.647,-19.388 0,-2.353 0.019,-4.155 0.058,-5.408 0,-0.369 0.147,-0.673 0.444,-0.91 0.295,-0.242 0.643,-0.366 1.044,-0.366 l 4.271,0.119 c 1.859,0.079 3.306,0.118 4.338,0.118 0.437,0 0.823,0.134 1.159,0.396 0.333,0.264 0.503,0.601 0.503,1.008 -0.039,1.82 -0.058,4.474 -0.058,7.959 l 0.058,11.183 c 0.038,0.85 0.057,2.19 0.057,4.014 z m -2.976,-1.394 c 0,-4.257 -0.038,-9.566 -0.116,-15.928 -0.077,-6.36 -0.178,-11.748 -0.299,-16.166 h -1.962 c -1.309,0 -2.473,0.04 -3.497,0.119 -0.085,2.922 0.072,9.183 0.473,18.785 0.237,6.039 0.358,10.963 0.358,14.772 v 2.61 h 5.043 z" />
    <path
       id="path52"
       fill-rule="evenodd"
       d="m 640.918,177.014 c -1.273,0 -1.908,-1.277 -1.908,-3.83 0,-0.407 0.06,-0.86 0.181,-1.358 0.166,-0.99 0.251,-1.855 0.251,-2.593 v -3.962 c 0,-0.447 -0.045,-1.664 -0.131,-3.649 l -0.18,-3.268 v -0.684 c 0,-0.535 -0.02,-0.887 -0.061,-1.055 -0.04,-1.77 -0.115,-2.921 -0.22,-3.459 -0.101,-0.535 -0.482,-0.804 -1.145,-0.804 l -1.536,0.06 c -0.249,0.048 -0.6,0.071 -1.054,0.071 -1.313,0 -2.013,-0.516 -2.099,-1.549 0,-0.864 0.515,-1.503 1.546,-1.92 0.743,0.04 1.547,0.166 2.41,0.372 l 1.606,0.312 c 0.367,-0.367 0.964,-0.553 1.788,-0.553 0.494,0 0.916,0.219 1.265,0.653 0.346,0.43 0.522,0.89 0.522,1.378 0.08,2.312 0.12,4.479 0.12,6.494 l 0.131,3.952 c 0,1.033 -0.02,1.92 -0.06,2.664 -0.048,0.985 -0.071,2.079 -0.071,3.278 0,0.779 0.123,2.239 0.372,4.383 l 0.13,1.237 c 0.161,0.369 0.241,0.761 0.241,1.176 0,0.699 -0.208,1.315 -0.622,1.85 -0.409,0.538 -0.901,0.804 -1.476,0.804 z" />
    <path
       id="path54"
       fill-rule="evenodd"
       d="m 665.017,188.691 c 0,0.282 -0.114,0.544 -0.336,0.784 -0.217,0.235 -0.511,0.394 -0.879,0.479 -0.118,0.04 -0.301,0.059 -0.543,0.059 -0.363,0 -0.709,-0.103 -1.037,-0.303 -0.323,-0.201 -0.523,-0.483 -0.602,-0.843 -0.529,-1.845 -1.358,-4.455 -2.489,-7.824 -0.568,-1.645 -1.214,-3.711 -1.945,-6.198 l -0.425,-1.567 -0.306,-0.666 -0.365,-1.38 c -0.403,-1.325 -0.886,-2.752 -1.452,-4.28 -0.81,3.775 -1.58,8.549 -2.31,14.327 -0.324,2.612 -0.647,4.46 -0.968,5.542 0.039,0.078 0.059,0.301 0.059,0.666 0,1.483 -0.528,2.262 -1.58,2.34 -0.489,0 -0.923,-0.117 -1.303,-0.352 -0.383,-0.24 -0.553,-0.583 -0.514,-1.029 -0.039,-1.566 0.405,-4.788 1.333,-9.665 0.929,-4.876 1.758,-8.756 2.489,-11.642 0.526,-2.167 0.77,-4.135 0.73,-5.905 v -0.363 c -0.691,-2.127 -1.278,-4.093 -1.757,-5.894 l -0.425,-1.45 c -0.856,-1.402 -1.284,-2.423 -1.284,-3.065 0.282,-0.56 0.771,-0.962 1.462,-1.204 0.118,-0.039 0.299,-0.059 0.543,-0.059 0.447,0 0.852,0.123 1.215,0.362 0.367,0.235 0.612,0.556 0.73,0.96 0.119,0.242 0.178,0.683 0.178,1.322 l 0.188,1.322 c 0.605,2.169 1.94,6.203 4.009,12.103 l 1.086,3.192 c 0.565,-3.936 0.872,-5.821 0.918,-5.659 0,-0.162 0.02,-0.375 0.06,-0.637 0.039,-0.259 0.079,-0.551 0.118,-0.871 0.203,-1.239 0.326,-2.282 0.366,-3.124 0.118,-1.325 0.157,-2.389 0.118,-3.192 0,-0.365 -0.02,-0.708 -0.059,-1.029 0,-0.482 -0.02,-0.783 -0.059,-0.9 -0.04,-1.161 0.121,-2.042 0.483,-2.644 0.361,-0.608 1.069,-1.07 2.123,-1.391 l 1.215,1.322 c -0.284,0.446 -0.508,0.999 -0.671,1.665 -0.158,0.661 -0.237,1.231 -0.237,1.713 0,0.72 0.019,1.339 0.059,1.861 v 0.666 c -0.324,1.123 -0.728,3.963 -1.215,8.519 -0.489,4.558 -0.79,8.037 -0.908,10.439 1.698,5.06 3.073,9.456 4.127,13.19 z" />
    <path
       id="path56"
       fill-rule="evenodd"
       d="m 681.727,187.563 c 2.193,0.284 3.291,0.569 3.291,0.851 0,0.403 -0.154,0.736 -0.456,0.998 -0.305,0.265 -0.701,0.396 -1.19,0.396 h -3.718 l -3.351,0.059 c -0.166,0 -0.654,0.03 -1.467,0.089 -0.813,0.065 -1.323,0.074 -1.527,0.03 -0.523,0 -1.11,-0.079 -1.764,-0.237 -0.61,-0.164 -1.016,-0.369 -1.22,-0.613 -0.119,-0.198 -0.178,-0.438 -0.178,-0.722 0,-0.369 0.21,-0.695 0.634,-0.979 0.429,-0.282 0.868,-0.426 1.319,-0.426 0.932,0 2.979,0.084 6.147,0.248 v -16.239 c 0,-4.253 -0.06,-7.511 -0.179,-9.781 -0.119,-2.275 -0.364,-4.067 -0.734,-5.38 -0.364,-1.318 -0.931,-2.24 -1.705,-2.769 -0.733,-0.527 -1.65,-0.791 -2.746,-0.791 l -1.398,0.059 c -0.491,0 -0.857,-0.101 -1.1,-0.307 -0.246,-0.202 -0.367,-0.608 -0.367,-1.216 0,-1.212 0.548,-1.82 1.646,-1.82 0.614,0 1.358,0.153 2.23,0.455 0.873,0.304 1.45,0.495 1.735,0.574 1.705,0.45 2.945,1.473 3.718,3.075 0.773,1.603 1.259,3.904 1.458,6.903 0.203,2.994 0.307,7.695 0.307,14.103 v 0.485 c -0.04,0.165 -0.06,0.346 -0.06,0.544 0,0.529 0.062,1.382 0.189,2.561 l 0.119,2.492 c 0,0.687 0.059,1.699 0.178,3.036 0.124,1.135 0.189,2.577 0.189,4.322 z" />
    <path
       id="path58"
       fill-rule="evenodd"
       d="m 700.096,190.013 c -0.454,0 -0.834,-0.142 -1.138,-0.429 -0.307,-0.285 -0.46,-0.635 -0.46,-1.05 0,-0.86 0.02,-1.655 0.06,-2.39 0.12,-1.064 0.18,-1.844 0.18,-2.339 l -0.369,-7.378 c -0.08,-1.552 -0.18,-3.909 -0.3,-7.069 0.2,-0.652 0.28,-1.512 0.24,-2.579 v -0.74 c -0.04,-0.732 -0.06,-2.249 -0.06,-4.549 0,-2.539 -0.02,-4.179 -0.06,-4.918 -0.128,-2.825 -0.864,-4.239 -2.207,-4.239 l -1.169,0.06 h -1.418 c -2.165,0 -3.291,-0.593 -3.376,-1.78 0,-0.405 0.183,-0.762 0.55,-1.07 0.372,-0.312 0.804,-0.49 1.298,-0.53 1.59,0.455 3.411,0.68 5.463,0.68 0.692,-0.365 1.408,-0.55 2.147,-0.55 0.452,0 0.851,0.218 1.199,0.65 0.344,0.428 0.539,0.885 0.579,1.37 0.085,2.379 0.13,4.616 0.13,6.708 l -0.07,6.699 v 4.549 c 0,2.906 0.042,5.876 0.13,8.907 v 0.43 c 0.364,3.114 0.549,5.039 0.549,5.779 0.165,3.854 -0.467,5.778 -1.898,5.778 z m -8.359,0 c -0.407,0 -0.764,-0.142 -1.068,-0.429 -0.308,-0.285 -0.46,-0.635 -0.46,-1.05 0,-4.012 0.06,-7.883 0.18,-11.617 0.08,-4.999 0.12,-8.828 0.12,-11.488 0,-0.532 -0.02,-1.024 -0.06,-1.479 v -1.1 c 0,-1.885 0.184,-3.159 0.559,-3.819 0.2,-0.285 0.484,-0.43 0.859,-0.43 0.404,0 0.794,0.515 1.168,1.54 0.325,0.859 0.49,2.109 0.49,3.749 0,1.719 -0.045,3.339 -0.13,4.859 -0.04,1.514 -0.06,3.089 -0.06,4.728 l 0.13,7.129 0.12,7.008 c 0,0.7 -0.155,1.277 -0.46,1.73 -0.307,0.447 -0.769,0.669 -1.388,0.669 z" />
    <path
       id="path60"
       fill-rule="evenodd"
       d="m 733.02,185.358 -0.058,3.836 v 0.059 c -0.2,0.685 -0.391,1.15 -0.57,1.394 -0.181,0.243 -0.488,0.366 -0.918,0.366 -0.753,0 -2,-0.039 -3.739,-0.118 l -3.333,-0.06 c -1.585,0 -2.358,-0.45 -2.319,-1.344 -0.039,-1.417 -0.106,-4.069 -0.203,-7.959 -0.097,-3.889 -0.169,-6.036 -0.212,-6.447 -0.433,-8.147 -0.648,-14.608 -0.648,-19.388 0,-2.353 0.02,-4.155 0.058,-5.408 0,-0.369 0.148,-0.673 0.445,-0.91 0.294,-0.242 0.642,-0.366 1.043,-0.366 l 4.271,0.119 c 1.859,0.079 3.306,0.118 4.338,0.118 0.437,0 0.823,0.134 1.159,0.396 0.334,0.264 0.503,0.601 0.503,1.008 -0.039,1.82 -0.058,4.474 -0.058,7.959 l 0.058,11.183 c 0.038,0.85 0.058,2.19 0.058,4.014 z m -2.976,-1.394 c 0,-4.257 -0.038,-9.566 -0.116,-15.928 -0.077,-6.36 -0.178,-11.748 -0.299,-16.166 h -1.961 c -1.31,0 -2.474,0.04 -3.498,0.119 -0.085,2.922 0.072,9.183 0.473,18.785 0.237,6.039 0.358,10.963 0.358,14.772 v 2.61 h 5.043 z" />
    <path
       id="path62"
       fill-rule="evenodd"
       d="m 747.924,177.014 c -1.272,0 -1.907,-1.277 -1.907,-3.83 0,-0.407 0.06,-0.86 0.18,-1.358 0.166,-0.99 0.251,-1.855 0.251,-2.593 v -3.962 c 0,-0.447 -0.045,-1.664 -0.13,-3.649 l -0.181,-3.268 v -0.684 c 0,-0.535 -0.02,-0.887 -0.06,-1.055 -0.04,-1.77 -0.116,-2.921 -0.221,-3.459 -0.101,-0.535 -0.482,-0.804 -1.145,-0.804 l -1.536,0.06 c -0.248,0.048 -0.6,0.071 -1.054,0.071 -1.313,0 -2.013,-0.516 -2.098,-1.549 0,-0.864 0.514,-1.503 1.546,-1.92 0.743,0.04 1.546,0.166 2.409,0.372 l 1.607,0.312 c 0.366,-0.367 0.964,-0.553 1.787,-0.553 0.494,0 0.916,0.219 1.265,0.653 0.346,0.43 0.522,0.89 0.522,1.378 0.08,2.312 0.121,4.479 0.121,6.494 l 0.13,3.952 c 0,1.033 -0.02,1.92 -0.06,2.664 -0.048,0.985 -0.07,2.079 -0.07,3.278 0,0.779 0.123,2.239 0.371,4.383 l 0.131,1.237 c 0.16,0.369 0.241,0.761 0.241,1.176 0,0.699 -0.209,1.315 -0.623,1.85 -0.409,0.538 -0.901,0.804 -1.476,0.804 z" />
    <path
       id="path64"
       fill-rule="evenodd"
       d="m 758.28,191.014 c -2.173,0 -3.258,-0.805 -3.258,-2.419 0,-0.458 0.176,-0.802 0.53,-1.033 0.359,-0.227 0.774,-0.344 1.244,-0.344 0.274,0.291 0.713,0.481 1.311,0.567 0.751,0.122 1.46,0.182 2.13,0.182 1.894,0 3.296,-0.506 4.202,-1.518 0.911,-1.017 1.682,-2.667 2.314,-4.949 0.436,-1.538 0.655,-3.613 0.655,-6.224 0,-1.66 -0.019,-2.988 -0.058,-3.987 -0.084,-1.741 -0.125,-3.315 -0.125,-4.726 0,-4.19 -0.574,-7.725 -1.716,-10.607 -1.144,-2.879 -2.843,-4.321 -5.099,-4.321 -0.392,0 -0.689,0.02 -0.886,0.06 l -2.728,0.557 c -0.393,-0.04 -0.709,-0.215 -0.945,-0.526 -0.238,-0.309 -0.356,-0.693 -0.356,-1.154 0,-0.45 0.156,-0.822 0.472,-1.113 0.32,-0.296 0.776,-0.446 1.369,-0.446 0.944,0 2.057,0.066 3.344,0.193 1.285,0.121 2.164,0.288 2.641,0.496 2.048,0.87 3.735,2.426 5.06,4.665 1.323,2.242 2.104,4.835 2.343,7.783 0.12,1.412 0.202,2.687 0.241,3.825 0.038,1.141 0.057,2.477 0.057,4.008 v 1.498 c 0,0.749 -0.019,1.414 -0.057,1.994 v 1.609 c -0.239,3.651 -1.029,6.745 -2.372,9.28 -1.344,2.531 -2.824,4.231 -4.443,5.101 -2.058,1.032 -4.014,1.549 -5.87,1.549 z" />
    <path
       id="path66"
       fill-rule="evenodd"
       d="m 783.483,190.013 c -0.509,0 -0.968,-0.16 -1.377,-0.481 -0.404,-0.32 -0.605,-0.723 -0.605,-1.209 0,-2.457 -0.068,-5.214 -0.198,-8.275 -0.083,-1.939 -0.125,-3.833 -0.125,-5.681 v -2.477 l -0.063,-0.786 c -0.041,-0.201 -0.062,-0.445 -0.062,-0.727 0,-0.241 0.021,-0.384 0.062,-0.423 v -0.245 c -0.174,-3.177 -0.26,-7.971 -0.26,-14.379 v -1.572 c 0,-0.438 -0.428,-0.659 -1.283,-0.659 -1.793,0 -3.076,-0.26 -3.848,-0.786 -0.466,-0.241 -0.698,-0.585 -0.698,-1.032 0,-0.359 0.221,-0.661 0.667,-0.904 0.451,-0.241 0.912,-0.364 1.387,-0.364 0.38,0 1.428,0.084 3.139,0.246 0.213,0 0.364,0.019 0.448,0.059 1.319,0.039 2.216,0.555 2.69,1.543 0.472,0.983 0.709,1.798 0.709,2.447 0,3.546 0.191,9.951 0.574,19.214 0.255,5.157 0.386,10.25 0.386,15.282 0,0.361 -0.151,0.654 -0.449,0.875 -0.299,0.224 -0.664,0.334 -1.094,0.334 z" />
    <path
       id="path68"
       fill-rule="evenodd"
       d="m 802.262,190.013 c -0.7,-0.362 -1.147,-0.638 -1.343,-0.825 -0.197,-0.183 -0.295,-0.459 -0.295,-0.825 V 170.95 c 0,-4.195 -0.062,-7.42 -0.181,-9.681 -0.114,-2.267 -0.338,-4.058 -0.667,-5.378 -0.33,-1.324 -0.866,-2.251 -1.609,-2.783 -0.743,-0.529 -1.779,-0.795 -3.105,-0.795 l -1.876,0.06 c -0.7,0 -1.236,-0.112 -1.61,-0.338 -0.369,-0.224 -0.552,-0.641 -0.552,-1.253 0,-1.177 0.762,-1.769 2.286,-1.769 0.971,0 1.983,0.164 3.038,0.487 1.052,0.326 1.659,0.507 1.819,0.547 1.638,0.452 2.829,1.471 3.571,3.061 0.743,1.586 1.2,3.874 1.372,6.868 0.176,2.997 0.267,7.753 0.267,14.273 v 0.488 c -0.039,0.166 -0.058,0.347 -0.058,0.546 0,0.532 0.058,1.389 0.172,2.574 l 0.124,2.505 c 0,0.691 0.057,1.707 0.171,3.052 0.157,1.267 0.238,2.897 0.238,4.89 0,0.079 0,0.315 0,0.705 0,0.386 -0.138,0.651 -0.409,0.796 -0.274,0.139 -0.724,0.208 -1.353,0.208 z" />
    <path
       id="path70"
       fill-rule="evenodd"
       d="m 821.735,187.563 c 2.193,0.284 3.291,0.569 3.291,0.851 0,0.403 -0.154,0.736 -0.456,0.998 -0.305,0.265 -0.701,0.396 -1.19,0.396 h -3.717 l -3.351,0.059 c -0.166,0 -0.655,0.03 -1.468,0.089 -0.813,0.065 -1.323,0.074 -1.526,0.03 -0.523,0 -1.111,-0.079 -1.765,-0.237 -0.61,-0.164 -1.016,-0.369 -1.22,-0.613 -0.119,-0.198 -0.178,-0.438 -0.178,-0.722 0,-0.369 0.211,-0.695 0.635,-0.979 0.428,-0.282 0.867,-0.426 1.318,-0.426 0.932,0 2.979,0.084 6.147,0.248 v -16.239 c 0,-4.253 -0.06,-7.511 -0.179,-9.781 -0.119,-2.275 -0.364,-4.067 -0.733,-5.38 -0.365,-1.318 -0.932,-2.24 -1.705,-2.769 -0.734,-0.527 -1.651,-0.791 -2.747,-0.791 l -1.398,0.059 c -0.49,0 -0.857,-0.101 -1.1,-0.307 -0.245,-0.202 -0.367,-0.608 -0.367,-1.216 0,-1.212 0.548,-1.82 1.646,-1.82 0.615,0 1.358,0.153 2.231,0.455 0.872,0.304 1.45,0.495 1.735,0.574 1.705,0.45 2.944,1.473 3.717,3.075 0.774,1.603 1.259,3.904 1.458,6.903 0.203,2.994 0.307,7.695 0.307,14.103 v 0.485 c -0.04,0.165 -0.059,0.346 -0.059,0.544 0,0.529 0.061,1.382 0.188,2.561 l 0.119,2.492 c 0,0.687 0.059,1.699 0.178,3.036 0.124,1.135 0.189,2.577 0.189,4.322 z" />
  </g>
</svg>
