<?xml version="1.0" encoding="UTF-8" standalone="no"?>
<svg
   xmlns:dc="http://purl.org/dc/elements/1.1/"
   xmlns:cc="http://creativecommons.org/ns#"
   xmlns:rdf="http://www.w3.org/1999/02/22-rdf-syntax-ns#"
   xmlns:svg="http://www.w3.org/2000/svg"
   xmlns="http://www.w3.org/2000/svg"
   xmlns:sodipodi="http://sodipodi.sourceforge.net/DTD/sodipodi-0.dtd"
   xmlns:inkscape="http://www.inkscape.org/namespaces/inkscape"
   inkscape:version="1.0 (4035a4fb49, 2020-05-01)"
   sodipodi:docname="welcome 2.svg"
   id="svg62"
   version="1.1"
   overflow="hidden"
   height="888.43665"
   width="2427.1338">
  <metadata
     id="metadata66">
    <rdf:RDF>
      <cc:Work
         rdf:about="">
        <dc:format>image/svg+xml</dc:format>
        <dc:type
           rdf:resource="http://purl.org/dc/dcmitype/StillImage" />
        <dc:title></dc:title>
      </cc:Work>
    </rdf:RDF>
  </metadata>
  <sodipodi:namedview
     inkscape:current-layer="svg62"
     inkscape:window-maximized="0"
     inkscape:window-y="0"
     inkscape:window-x="953"
     inkscape:cy="631.94872"
     inkscape:cx="2571.5457"
     inkscape:zoom="0.65916149"
     fit-margin-right="0"
     fit-margin-left="0"
     fit-margin-top="0"
     fit-margin-bottom="130"
     showgrid="false"
     id="namedview64"
     inkscape:window-height="1048"
     inkscape:window-width="958"
     inkscape:pageshadow="2"
     inkscape:pageopacity="0"
     guidetolerance="10"
     gridtolerance="10"
     objecttolerance="10"
     borderopacity="1"
     bordercolor="#666666"
     pagecolor="#ffffff" />
  <defs
     id="defs42">
    <clipPath
       id="clip0">
      <rect
         id="rect39"
         height="52"
         width="161"
         y="258"
         x="-103" />
    </clipPath>
  </defs>
  <g
     id="g60"
     transform="matrix(15.168733,0,0,15.168733,1562.334,-3929.1114)"
     clip-path="url(#clip0)">
    <path
       id="path44"
       fill-rule="evenodd"
       d="m -85.4418,283.991 c 0,2.16 0.0207,3.937 0.0621,5.334 0.0414,2.354 -0.2146,5.331 -0.7655,8.931 -0.5534,3.595 -1.1664,5.875 -1.8414,6.835 -0.6776,1.041 -1.4845,1.789 -2.4208,2.242 -0.9309,0.461 -2.056,0.693 -3.3724,0.693 -1.6499,0 -3.1628,-0.371 -4.5414,-1.112 -1.381,-0.741 -2.3038,-1.789 -2.7728,-3.149 -0.082,-0.195 -0.232,-0.6 -0.444,-1.219 -0.207,-0.624 -0.368,-1.194 -0.476,-1.716 -0.104,-0.519 -0.176,-1.097 -0.218,-1.735 -0.09,-1.522 -0.134,-2.599 -0.134,-3.238 l 0.072,-3.656 0.187,-5.821 0.062,-5.752 c 0,-2.957 -0.062,-5.473 -0.187,-7.547 l -0.382,-1.921 c -0.215,-0.636 -0.321,-1.214 -0.321,-1.736 l -0.062,-1.023 1.459,-1.375 c 0.592,0 1.143,0.161 1.6548,0.477 0.5095,0.32 0.7862,0.7 0.8277,1.141 0.0412,0.359 0.0619,1.078 0.0619,2.155 0,1.243 -0.0207,2.24 -0.0619,2.993 0,2.082 0.0206,3.501 0.0619,4.261 l 0.0621,1.736 v 2.165 c 0.0466,0.28 0.0725,0.719 0.0725,1.316 0,0.716 -0.0673,1.852 -0.1965,3.412 -0.0828,1.841 -0.1243,3.021 -0.1243,3.54 l 0.0621,1.862 c 0.3362,-0.083 0.675,-0.224 1.0137,-0.419 0.8484,-0.519 1.482,-1.299 1.9035,-2.34 0.4268,-1.039 0.6931,-2.37 0.7967,-3.988 0.1085,-1.619 0.1654,-3.925 0.1654,-6.923 v -9.653 c 0,-0.395 0.0725,-0.685 0.2173,-0.867 0.1501,-0.181 0.5897,-0.432 1.3138,-0.751 0.6749,0 1.1405,0.073 1.3965,0.214 0.2535,0.137 0.4035,0.288 0.4448,0.449 0.0415,0.156 0.0622,0.495 0.0622,1.014 0,2.043 -0.0879,3.642 -0.2587,4.797 -0.1241,1.321 -0.1862,2.318 -0.1862,2.993 l -0.1241,2.457 c -0.1319,1.127 -0.1966,1.968 -0.1966,2.526 0,0.195 0.0207,0.375 0.0621,0.536 v 0.478 c 0,2.757 -0.1707,4.904 -0.5069,6.445 -0.3388,1.54 -0.9621,2.74 -1.8724,3.598 -0.9104,0.858 -2.2811,1.528 -4.107,2.008 l 0.3828,5.87 c 0.0827,1.521 0.5483,2.803 1.3966,3.841 0.8483,1.041 1.8233,1.56 2.9276,1.56 0.9776,0 1.8051,-0.419 2.4828,-1.257 0.6749,-0.839 1.1404,-1.916 1.3964,-3.237 0.3363,-1.682 0.7165,-3.813 1.138,-6.387 0.4267,-2.579 0.6001,-4.088 0.5173,-4.524 0,-1.319 -0.0208,-2.379 -0.0621,-3.179 0,-2.437 -0.0207,-4.575 -0.0621,-6.415 -0.0414,-0.761 -0.062,-1.799 -0.062,-3.12 0,-1.234 0.0413,-2.614 0.1241,-4.134 l 0.0621,-2.633 c 0,-1.28 0.1578,-2.248 0.4759,-2.906 0.3154,-0.663 0.7706,-0.994 1.3655,-0.994 0.5094,0 0.9543,0.192 1.3345,0.575 0.3853,0.378 0.5793,0.807 0.5793,1.287 0,0.522 -0.15,0.921 -0.4449,1.199 0,0.32 -0.0362,0.849 -0.1034,1.59 -0.0621,0.736 -0.0931,1.462 -0.0931,2.184 0,1.599 0.0232,2.659 0.0725,3.178 v 1.56 z" />
    <path
       id="path46"
       fill-rule="evenodd"
       d="m -69.0008,270.658 c -0.3235,0 -0.5878,-0.022 -0.7903,-0.069 v 0.246 c 0,4.075 0.3259,9.803 0.978,17.185 0.684,7.869 1.0274,13.598 1.0274,17.185 0,0.487 -0.215,0.913 -0.6421,1.28 -0.4224,0.361 -0.8965,0.541 -1.4226,0.541 l -1.1558,-0.787 c 0,-0.891 -0.0197,-1.678 -0.0593,-2.362 l -0.0592,-2.304 0.1185,-2.057 c -0.158,-0.485 -0.4717,-4.842 -0.9384,-13.071 -0.4692,-8.228 -0.7409,-13.654 -0.8199,-16.279 l -1.3337,-0.059 c -2.7931,0 -4.5539,-0.239 -5.2848,-0.719 -0.41,-0.288 -0.6125,-0.652 -0.6125,-1.092 0,-0.32 0.2,-0.613 0.6026,-0.876 0.4074,-0.261 0.8346,-0.394 1.2842,-0.394 1.131,0 2.5091,0.079 4.1292,0.236 1.5805,0.204 2.956,0.305 4.1291,0.305 h 0.978 c 1.2496,0 1.8769,0.488 1.8769,1.457 0,0.48 -0.205,0.874 -0.6125,1.181 -0.4026,0.303 -0.8668,0.453 -1.3928,0.453 z" />
    <path
       id="path48"
       fill-rule="evenodd"
       d="m -49.515,291.65 c 0.0468,6.309 0.2214,11.463 0.5209,15.469 -0.8126,0.604 -1.5834,0.907 -2.3126,0.907 -1.0624,0 -1.5937,-0.888 -1.5937,-2.663 l 0.3124,-17.166 -0.1249,-3.029 v -1.637 c 0.0416,-1.137 0.0416,-2.726 0,-4.765 -0.0417,-2.045 -0.1042,-3.692 -0.1875,-4.943 0,-0.73 -0.0261,-1.235 -0.0729,-1.519 0,-0.809 -0.0521,-1.334 -0.1564,-1.579 -0.1041,-0.241 -0.3931,-0.404 -0.8645,-0.483 l -1.0208,-0.237 c -0.9454,-0.202 -1.9271,-0.306 -2.948,-0.306 l -0.198,0.661 -0.2499,1.342 v 2.545 c 0,1.211 0.0417,4.686 0.1251,10.428 l 0.1248,6.255 c 0.1303,4.123 0.198,7.561 0.198,10.309 l -0.0625,5.031 c 0,0.363 -0.1614,0.656 -0.4792,0.878 -0.3203,0.225 -0.6953,0.335 -1.1249,0.335 -0.5156,0 -0.9636,-0.16 -1.3438,-0.483 -0.3828,-0.32 -0.5729,-0.725 -0.5729,-1.213 v -2.25 c 0,-2.584 -0.0261,-4.602 -0.073,-6.057 v -8.188 c 0,-0.281 -0.0207,-0.545 -0.0625,-0.789 v -0.73 c 0,-0.242 0.0209,-0.385 0.0625,-0.424 v -0.247 c -0.0416,-0.927 -0.0625,-2.38 -0.0625,-4.361 l 0.0625,-6.915 0.073,-3.098 v -1.578 c -0.2994,-1.046 -0.448,-1.894 -0.448,-2.545 0,-0.282 0.0417,-0.546 0.125,-0.79 0.4219,-0.486 1.0417,-0.73 1.8542,-0.73 0.4298,0 0.836,0.124 1.2188,0.365 0.6797,-0.281 1.3646,-0.424 2.0521,-0.424 1.2761,0 2.7709,0.123 4.4792,0.365 0.6796,0.126 1.2656,0.38 1.7604,0.76 0.4922,0.382 0.7396,0.858 0.7396,1.43 v 2.121 c 0,2.225 0.0208,4.042 0.0625,5.456 v 1.46 c 0.125,4.123 0.1875,8.469 0.1875,13.032 z" />
    <path
       id="path50"
       fill-rule="evenodd"
       d="m -17.9926,303.371 -0.0628,3.836 v 0.059 c -0.2171,0.685 -0.4239,1.15 -0.6175,1.394 -0.1963,0.242 -0.5286,0.366 -0.9943,0.366 -0.8165,0 -2.1667,-0.039 -4.0507,-0.118 l -3.6112,-0.06 c -1.7166,0 -2.5539,-0.45 -2.512,-1.344 -0.0419,-1.417 -0.1152,-4.069 -0.2198,-7.96 -0.1048,-3.888 -0.1832,-6.036 -0.2304,-6.446 -0.4684,-8.147 -0.7013,-14.608 -0.7013,-19.388 0,-2.353 0.021,-4.155 0.0628,-5.408 0,-0.369 0.1597,-0.673 0.4815,-0.91 0.3194,-0.242 0.6961,-0.366 1.1305,-0.366 l 4.6264,0.119 c 2.0149,0.079 3.5823,0.118 4.6997,0.118 0.4736,0 0.8922,0.134 1.256,0.396 0.3611,0.264 0.5443,0.6 0.5443,1.008 -0.0419,1.819 -0.0629,4.474 -0.0629,7.959 l 0.0629,11.183 c 0.0418,0.85 0.0628,2.19 0.0628,4.014 z m -3.2238,-1.394 c 0,-4.257 -0.0418,-9.566 -0.1256,-15.928 -0.0837,-6.36 -0.1936,-11.749 -0.3245,-16.166 h -2.1248 c -1.4182,0 -2.6795,0.04 -3.7889,0.119 -0.0917,2.922 0.0784,9.183 0.5128,18.785 0.2565,6.039 0.3873,10.963 0.3873,14.772 v 2.61 h 5.4637 z" />
    <path
       id="path52"
       fill-rule="evenodd"
       d="m -2.83233,307.79 c -0.67046,0.158 -1.38183,0.237 -2.13919,0.237 -1.38682,0 -2.46661,-0.383 -3.24448,-1.145 -0.77277,-0.769 -1.15661,-1.904 -1.15661,-3.403 0,-1.492 0.40434,-3.793 1.21801,-6.906 0.81877,-3.117 1.58644,-5.665 2.3029,-7.645 0.45544,-1.46 1.23071,-3.544 2.3233,-6.255 l 0.81888,-2.121 c 0.29162,-0.848 0.52194,-1.988 0.68576,-3.423 0.16881,-1.433 0.25582,-2.92 0.25582,-4.459 0,-1.13 -0.02051,-1.939 -0.06141,-2.427 -0.75226,-0.118 -1.34852,-0.197 -1.79115,-0.237 -0.43754,-0.044 -1.30752,-0.088 -2.60993,-0.128 -2.43591,-0.079 -4.00957,-0.321 -4.71827,-0.73 -0.4658,-0.281 -0.696,-0.624 -0.696,-1.026 v -2.002 c 0,-0.77 -0.041,-1.495 -0.1229,-2.181 -0.0818,-0.69 -0.1483,-1.156 -0.1944,-1.4 -0.1637,-2.341 0.3608,-3.512 1.5762,-3.512 0.58596,0 1.067,0.244 1.44314,0.73 0.38123,0.48 0.61405,1.045 0.69595,1.696 0,0.237 -0.0614,0.58 -0.18421,1.026 l -0.0614,1.154 -0.07172,3.217 c 0.42224,0 1.47394,0.079 3.15249,0.236 l 1.38161,0.129 2.89655,0.118 h 1.003094 c 1.130896,0 1.742446,0.528 1.831946,1.578 0.20483,1.29 0.30714,3.167 0.30714,5.633 0,1.337 -0.04101,2.227 -0.12281,2.674 -0.37613,2.106 -1.195011,4.733 -2.456416,7.882 l -0.941684,2.486 c -2.85295,7.604 -4.42658,12.617 -4.71831,15.044 -0.0818,0.568 -0.12281,0.933 -0.12281,1.095 0,0.442 0.14581,0.765 0.44003,0.967 0.29184,0.205 0.85989,0.306 1.69905,0.306 0.54505,0 0.98519,-0.02 1.32032,-0.059 0.41453,-0.045 0.71906,0.106 0.91087,0.454 0.18942,0.342 0.26114,0.776 0.21503,1.302 -0.08191,0.606 -0.43754,0.969 -1.06439,1.095 z" />
    <path
       id="path54"
       fill-rule="evenodd"
       d="m 15.6204,308.027 c -0.4576,0 -0.8705,-0.164 -1.2389,-0.494 -0.3636,-0.327 -0.5442,-0.74 -0.5442,-1.239 0,-2.518 -0.0611,-5.344 -0.1784,-8.482 -0.0751,-1.987 -0.1126,-3.929 -0.1126,-5.823 v -2.538 L 13.49,288.645 c -0.0375,-0.207 -0.0563,-0.456 -0.0563,-0.746 0,-0.246 0.0188,-0.392 0.0563,-0.433 v -0.252 c -0.1572,-3.256 -0.2347,-8.169 -0.2347,-14.737 v -1.612 c 0,-0.448 -0.3847,-0.675 -1.1542,-0.675 -1.6142,0 -2.76859,-0.267 -3.46305,-0.806 -0.41999,-0.247 -0.6288,-0.6 -0.6288,-1.058 0,-0.368 0.19936,-0.677 0.60065,-0.927 0.40587,-0.246 0.82109,-0.372 1.24816,-0.372 0.34254,0 1.28574,0.085 2.82484,0.252 0.1923,0 0.3285,0.02 0.4035,0.06 1.1873,0.04 1.9944,0.569 2.4213,1.582 0.4247,1.007 0.6383,1.843 0.6383,2.508 0,3.634 0.1712,10.2 0.5161,19.694 0.2299,5.286 0.3472,10.507 0.3472,15.665 0,0.37 -0.136,0.67 -0.4035,0.896 -0.2698,0.229 -0.5983,0.343 -0.9854,0.343 z" />
    <path
       id="path56"
       fill-rule="evenodd"
       d="m 34.769,269.002 c 0,-0.658 0.1218,-1.152 0.3679,-1.482 0.2436,-0.327 0.5693,-0.493 0.9744,-0.493 0.4898,0 0.9273,0.229 1.3125,0.685 0.3903,0.451 0.5866,1.028 0.5866,1.733 l -0.0695,2.781 c -0.0399,1.076 -0.0597,2.399 -0.0597,3.971 l -0.6065,9.663 c -0.0795,1.156 -0.1442,2.043 -0.1889,2.66 -0.0398,0.62 -0.0796,1.094 -0.1193,1.421 l -0.1791,2.046 -0.1292,1.491 c 0,3.386 -0.3257,6.041 -0.9744,7.961 -0.6513,1.922 -1.8942,3.688 -3.7287,5.3 l -2.1975,0.988 c -1.8371,0.786 -2.8388,1.199 -3.0029,1.239 -0.1988,0.041 -0.4847,0.061 -0.855,0.061 -1.0615,0 -1.6904,-0.454 -1.8893,-1.361 v -0.252 c 0,-0.408 0.1417,-0.821 0.4276,-1.239 l 2.446,-0.746 1.5212,-0.796 c -0.2858,-1.242 -0.5319,-2.894 -0.7357,-4.958 -0.1988,-2.068 -0.3182,-3.95 -0.3579,-5.643 0,-0.866 -0.0846,-1.667 -0.2486,-2.408 -0.1591,-0.746 -0.425,-1.655 -0.7955,-2.731 -0.5319,-1.612 -0.9595,-3.179 -1.2827,-4.706 -0.3255,-1.531 -0.527,-3.491 -0.6065,-5.885 l -0.2486,-4.836 -0.1193,-4.021 c 0,-1.491 0.6911,-2.237 2.0781,-2.237 0.363,0 0.6688,0.169 0.9148,0.504 0.2436,0.33 0.3679,0.68 0.3679,1.048 l 0.1194,4.827 c 0,-0.121 0.0396,1.264 0.1192,4.151 0.0448,1.983 0.1989,3.729 0.4574,5.24 0.2635,1.507 0.6216,3.293 1.0739,5.361 0.2436,0.988 0.4573,1.96 0.6364,2.912 0.1839,0.947 0.2784,1.774 0.2784,2.479 l 0.1889,10.026 c 0.4897,-0.201 0.7557,-0.302 0.7955,-0.302 0.3231,-0.166 0.6389,-0.395 0.9445,-0.685 0.3034,-0.287 0.4973,-0.557 0.5768,-0.806 0.0447,-0.121 0.169,-0.418 0.3679,-0.897 0.2038,-0.476 0.348,-1.129 0.4276,-1.955 0.0844,-1.814 0.1689,-3.9 0.2485,-6.258 l 0.7359,-14.49 c 0.1193,-4.252 0.241,-6.915 0.3678,-7.991 z" />
    <path
       id="path58"
       fill-rule="evenodd"
       d="m 52.1709,307.79 c -0.6704,0.158 -1.3817,0.237 -2.1391,0.237 -1.3868,0 -2.4667,-0.383 -3.2445,-1.145 -0.7727,-0.769 -1.1565,-1.904 -1.1565,-3.403 0,-1.492 0.4042,-3.793 1.2179,-6.906 0.8188,-3.117 1.5864,-5.665 2.3029,-7.645 0.4554,-1.46 1.2308,-3.544 2.3234,-6.255 l 0.8187,-2.121 c 0.2918,-0.848 0.5221,-1.988 0.6858,-3.423 0.1689,-1.433 0.2559,-2.92 0.2559,-4.459 0,-1.13 -0.0205,-1.939 -0.0615,-2.427 -0.7523,-0.118 -1.3484,-0.197 -1.7911,-0.237 -0.4375,-0.044 -1.3075,-0.088 -2.6099,-0.128 -2.436,-0.079 -4.0096,-0.321 -4.7184,-0.73 -0.4656,-0.281 -0.6959,-0.624 -0.6959,-1.026 v -2.002 c 0,-0.77 -0.0409,-1.495 -0.1229,-2.181 -0.0819,-0.69 -0.1484,-1.156 -0.1944,-1.4 -0.1638,-2.341 0.3608,-3.512 1.5762,-3.512 0.5859,0 1.067,0.244 1.4431,0.73 0.3812,0.48 0.6141,1.045 0.6959,1.696 0,0.237 -0.0614,0.58 -0.1842,1.026 l -0.0614,1.154 -0.0716,3.217 c 0.4222,0 1.4739,0.079 3.1524,0.236 l 1.3817,0.129 2.8965,0.118 h 1.0031 c 1.1309,0 1.7424,0.528 1.832,1.578 0.2047,1.29 0.307,3.167 0.307,5.633 0,1.337 -0.0409,2.227 -0.1228,2.674 -0.3761,2.106 -1.1949,4.733 -2.4564,7.882 l -0.9416,2.486 c -2.853,7.604 -4.4266,12.617 -4.7183,15.044 -0.0819,0.568 -0.1228,0.933 -0.1228,1.095 0,0.442 0.1458,0.765 0.4401,0.967 0.2917,0.205 0.8597,0.306 1.699,0.306 0.5449,0 0.9851,-0.02 1.3203,-0.059 0.4144,-0.045 0.719,0.106 0.9109,0.454 0.1893,0.342 0.261,0.776 0.215,1.302 -0.0819,0.606 -0.4376,0.969 -1.0645,1.095 z" />
  </g>
</svg>
